<svg id="cortan-rojo" xmlns="http://www.w3.org/2000/svg" width="1200" height="1200" viewBox="0 0 1200 1200">
  <metadata><?xpacket begin="﻿" id="W5M0MpCehiHzreSzNTczkc9d"?>
<x:xmpmeta xmlns:x="adobe:ns:meta/" x:xmptk="Adobe XMP Core 5.6-c140 79.160451, 2017/05/06-01:08:21        ">
   <rdf:RDF xmlns:rdf="http://www.w3.org/1999/02/22-rdf-syntax-ns#">
      <rdf:Description rdf:about=""/>
   </rdf:RDF>
</x:xmpmeta>
                                                                                                    
                                                                                                    
                                                                                                    
                                                                                                    
                                                                                                    
                                                                                                    
                                                                                                    
                                                                                                    
                                                                                                    
                                                                                                    
                                                                                                    
                                                                                                    
                                                                                                    
                                                                                                    
                                                                                                    
                                                                                                    
                                                                                                    
                                                                                                    
                                                                                                    
                                                                                                    
                           
<?xpacket end="w"?></metadata>
<defs>
    <style>
      .cls-1, .cls-10, .cls-11, .cls-12, .cls-13, .cls-14, .cls-15, .cls-16, .cls-3, .cls-4, .cls-5, .cls-6, .cls-7, .cls-8, .cls-9 {
        fill: none;
      }

      .cls-1, .cls-12, .cls-13 {
        stroke: #c13f28;
      }

      .cls-1, .cls-14, .cls-15, .cls-16, .cls-7, .cls-9 {
        stroke-width: 5.92px;
      }

      .cls-2 {
        fill: #343233;
      }

      .cls-3, .cls-4 {
        stroke: #dd9f32;
      }

      .cls-13, .cls-3 {
        stroke-width: 13.21px;
      }

      .cls-10, .cls-11, .cls-12, .cls-13, .cls-14, .cls-15, .cls-16, .cls-17, .cls-18, .cls-3, .cls-4, .cls-5, .cls-6, .cls-7, .cls-8, .cls-9 {
        fill-rule: evenodd;
      }

      .cls-4 {
        stroke-width: 13px;
      }

      .cls-5, .cls-6, .cls-7, .cls-8, .cls-9 {
        stroke: #78af9f;
      }

      .cls-5 {
        stroke-width: 10px;
      }

      .cls-12, .cls-6 {
        stroke-width: 24.14px;
      }

      .cls-12, .cls-13, .cls-6, .cls-7 {
        opacity: 0.6;
      }

      .cls-8 {
        stroke-width: 7px;
      }

      .cls-10, .cls-11 {
        stroke: #d36e2d;
        opacity: 0.5;
      }

      .cls-10 {
        stroke-width: 86.1px;
      }

      .cls-11 {
        stroke-width: 35.08px;
      }

      .cls-14, .cls-15, .cls-16 {
        stroke: #669dc9;
      }

      .cls-14, .cls-17 {
        opacity: 0.8;
      }

      .cls-15 {
        opacity: 0.65;
      }

      .cls-17 {
        fill: #7aa8cd;
      }

      .cls-18 {
        fill: #669dc9;
      }
    </style>
  </defs>
  <circle id="Circulo-rojo" class="cls-1" cx="603.453" cy="608.61" r="378.453"/>
  <ellipse class="cls-2" cx="959.015" cy="502.86" rx="35.985" ry="113.36"/>
  <ellipse class="cls-2" cx="543.453" cy="945.422" rx="226.859" ry="176.578"/>
  <ellipse class="cls-2" cx="224.984" cy="669.64" rx="47.984" ry="31.61"/>
  <ellipse class="cls-2" cx="231.531" cy="573.718" rx="45.813" ry="14.156"/>
  <ellipse class="cls-2" cx="289.344" cy="384.063" rx="44.719" ry="64.313"/>
  <ellipse class="cls-2" cx="606.718" cy="246.703" rx="89.438" ry="20.703"/>
  <path id="amarillo-abajo" class="cls-3" d="M259,612s-1.486,257.571,264,321"/>
  <path id="amarillo-arriba" class="cls-4" d="M275,465s77.489-227.642,358-213"/>
  <path id="agua-transparente" class="cls-5" d="M179,581S163.148,766.75,305,898"/>
  <path id="agua2-transparente" class="cls-6" d="M137,502.875S97.633,708.125,216,865"/>
  <path id="azul-abajo" class="cls-7" d="M542,923s269.758,53.688,370-226"/>
  <path id="azul-arriba-derecha" class="cls-8" d="M928,616s10.578-155.406-98-248"/>
  <path id="azul-arriba-arriba" class="cls-9" d="M525,283s157.734-42.766,282,63"/>
  <path id="azul-abajo-de-arriba" class="cls-7" d="M529,288S422.984,307.125,342,407"/>
  <path id="natanja2-transparente" class="cls-10" d="M297,194s86.039-64.914,178-84"/>
  <path id="naranja-transparente" class="cls-11" d="M340,930s119.531,100.43,262,92"/>
  <path id="rojo2-transparente" class="cls-12" d="M778,982s102.453-35.875,167-143"/>
  <path id="rojo-transparente" class="cls-13" d="M892,994s112.49-78.719,152-198"/>
  <path id="azul-transparente" class="cls-14" d="M651,184s234.945,11.531,341,264"/>
  <path id="azul2-transparente" class="cls-15" d="M656,156s206.148,7.016,310,199"/>
  <path id="azul3-transparente" class="cls-16" d="M974.424,366.688s32.356,47.939,54.226,137.737"/>
  <path id="cloud-chica_oscura" data-name="cloud-chica oscura" class="cls-17" d="M315.5,435.971s23.949,1.767,25.5-30.4c0,0-1.775-18.239-19.9-19.91,0,0,2.856-27.259-17.416-39.2,0,0-31.423-14.978-41.676,17.422,0,0-40.694-29.779-47.895,21.155,0,0-26.875-2.4-27.991,24.266,0,0-3,13.862,21.77,26.667H315.5Z"/>
  <path id="cloud" class="cls-18" d="M92,502.859S53.5,505.7,51,454c0,0,2.853-29.314,32-32,0,0-4.591-43.811,28-63,0,0,50.517-24.072,67,28,0,0,65.423-47.859,77,34,0,0,43.2-3.859,45,39,0,0,4.823,22.279-35,42.859H92Z"/>
  <path id="cloud_oscura" data-name="cloud oscura" class="cls-17" d="M354.92,889.963s-29.975,2.223-31.92-38.245c0,0,2.221-22.947,24.913-25.049,0,0-3.574-34.294,21.8-49.315,0,0,39.328-18.843,52.161,21.918,0,0,50.934-37.463,59.947,26.614,0,0,33.636-3.021,35.034,30.528,0,0,3.755,17.439-27.249,33.549H354.92Z"/>
  <path id="cloud-chica" class="cls-18" d="M956.5,814.971s23.949,1.767,25.5-30.4c0,0-1.775-18.239-19.9-19.91,0,0,2.856-27.259-17.416-39.2,0,0-31.423-14.978-41.676,17.422,0,0-40.694-29.779-47.9,21.155,0,0-26.875-2.4-27.991,24.266,0,0-3,13.862,21.77,26.667H956.5Z"/>
</svg>
