<svg xmlns="http://www.w3.org/2000/svg" width="500" height="500" viewBox="0 0 1000 1000">
  <metadata><?xpacket begin="﻿" id="W5M0MpCehiHzreSzNTczkc9d"?>
<x:xmpmeta xmlns:x="adobe:ns:meta/" x:xmptk="Adobe XMP Core 5.6-c142 79.160924, 2017/07/13-01:06:39        ">
   <rdf:RDF xmlns:rdf="http://www.w3.org/1999/02/22-rdf-syntax-ns#">
      <rdf:Description rdf:about=""/>
   </rdf:RDF>
</x:xmpmeta>
                                                                                                    
                                                                                                    
                                                                                                    
                                                                                                    
                                                                                                    
                                                                                                    
                                                                                                    
                                                                                                    
                                                                                                    
                                                                                                    
                                                                                                    
                                                                                                    
                                                                                                    
                                                                                                    
                                                                                                    
                                                                                                    
                                                                                                    
                                                                                                    
                                                                                                    
                                                                                                    
                           
<?xpacket end="w"?></metadata>
<defs>
    <style>
      .cls-1, .cls-3 {
        fill: #141614;
      }

      .cls-1 {
        stroke: #fff;
        stroke-linejoin: round;
        stroke-width: 20px;
      }

      .cls-1, .cls-2, .cls-3 {
        fill-rule: evenodd;
      }

      .cls-2 {
        fill: #fff;
      }
    </style>
  </defs>
  <path class="cls-1" d="M35,927H938s25.433-7.539,35-37V114s-3.135-36.067-43-40H160s-35.985,4.973-39.556,42V856S111.233,923.637,35,927Z"/>
  <path class="cls-2" d="M316,309l-5,81s2.321,26.912,20,34c0,0,21.1,6.984,12,40,0,0-12.671,40.268-16,76l-8,81s-4.279,23.625,10,22h32s7.872,3.459,9,12c0,0,3.167,15.3,3,24,0,0,7.311,3.546,30,2,0,0,27.57,1.714,49-37,0,0,27.757-39.159,55-1,0,0-4.895,124.427-141,109,0,0-11.3,12.222,7,19,0,0,13.192,1.168,22-1l7,11s-24.923,27.51-9,65c0,0,9.581,28,46,12,0,0,108.471-16.955,152-190,0,0-104.227-61.682-80-387Z"/>
  <path class="cls-2" d="M184,459s58.524-66.225,105,13c0,0-11.783.263-16,7,0,0-19.712,1.307-20-1,0,0-32.732-9.667-37-9l-30-1S179.982,466.232,184,459Z"/>
  <path class="cls-2" d="M529,139S432.409,677.989,693,718c0,0,43.748,13.575,69-29l10-27s19.523-53.652-33-26l-2-6s13.141-23.206,50-26c0,0,17.835-11.059,0-22,0,0-58.163-10.732-97,29,0,0-50.243,19.444-51-18,0,0,26.3-78.745,148-68,0,0,1.784-24.022,12-37l20,2s5.265,0.234,7-19c0,0-1.712-97.326-17-133,0,0-7-14.267,19-31,0,0,16.82-10.909,10-36,0,0-5.552-51.842-12-60C826,211,654.323,258.294,529,139Z"/>
  <path class="cls-3" d="M422,602l25,22s4.683,1.577,10-3c0,0,35.573-33.535,81,31,0,0-13.828-73.045-89-41Z"/>
  <path class="cls-3" d="M414,476s7.054-1.939,14,4c0,0,22.184,5.309,32-3,0,0,27.817-10.693,52-14,0,0-3.811-29.822-2-34,0,0-21.7-16.069-60,0C450,429,414,445.629,414,476Z"/>
  <path class="cls-3" d="M508,334s-23.817-2.33-34,12c0,0-25.074,22.3-45,26s-27.076-4.574-34,14c0,0,.931,16.675,27,15,0,0,19.69,1.043,57-29,0,0,11.19-14.081,28-17Z"/>
  <path class="cls-3" d="M625,606s-18.742-32.649,40-72c0,0,38.338-21.989,42-60,0,0,6.866,10.208-53,62C654,536,588.932,584.6,625,606Z"/>
  <path class="cls-3" d="M640,358s-13.145-14.167,46-43c0,0,22.459-6.028,41,1,0,0,26.161,38.129,17,42,0,0-20.808-5.438-35,1C709,359,669.727,376.629,640,358Z"/>
  <path class="cls-3" d="M604,315s44.159-71.837,120-65c0,0,15.789,7.455,4,23,0,0-3.314,7.571-24,7,0,0-38.553-12.969-97,40C607,320,598.451,322.531,604,315Z"/>
  <path class="cls-2" d="M833,340s2.956-22.273,15-27c0,0,14.4-1.314,17,0,0,0,28.794,8.075,36,25,0,0-9.385,14.918-49,3C852,341,845.586,334.294,833,340Z"/>
</svg>
