<svg id="lamaprilla" xmlns="http://www.w3.org/2000/svg" width="1000" height="1000" viewBox="0 0 1000 1000">
  <metadata><?xpacket begin="﻿" id="W5M0MpCehiHzreSzNTczkc9d"?>
<x:xmpmeta xmlns:x="adobe:ns:meta/" x:xmptk="Adobe XMP Core 5.6-c140 79.160451, 2017/05/06-01:08:21        ">
   <rdf:RDF xmlns:rdf="http://www.w3.org/1999/02/22-rdf-syntax-ns#">
      <rdf:Description rdf:about=""/>
   </rdf:RDF>
</x:xmpmeta>
                                                                                                    
                                                                                                    
                                                                                                    
                                                                                                    
                                                                                                    
                                                                                                    
                                                                                                    
                                                                                                    
                                                                                                    
                                                                                                    
                                                                                                    
                                                                                                    
                                                                                                    
                                                                                                    
                                                                                                    
                                                                                                    
                                                                                                    
                                                                                                    
                                                                                                    
                                                                                                    
                           
<?xpacket end="w"?></metadata>
<defs>
    <style>
      .cls-1, .cls-4 {
        fill: none;
        stroke: #cecdcd;
      }

      .cls-1 {
        stroke-width: 5.92px;
      }

      .cls-1, .cls-2, .cls-4, .cls-5, .cls-6 {
        fill-rule: evenodd;
      }

      .cls-2 {
        fill: #669dc9;
      }

      .cls-3 {
        font-size: 1666.667px;
        fill: #cecdcd;
        font-family: "Myriad Pro";
      }

      .cls-4 {
        stroke-width: 9.57px;
      }

      .cls-5 {
        fill: #7aa8cd;
        opacity: 0.8;
      }

      .cls-6 {
        fill: #dd9f32;
      }
    </style>
  </defs>
  <path id="lampairlla6" class="cls-1" d="M559.538,913.877l118.777,23.174L712.692,832.92l-134.84-29.5-23.42-5.124Z"/>
  <path id="lamparilla5" class="cls-1" d="M711.506,833.691s7.735-95.8,54.865-128.405c0,0,232.6-143.988-71.45-260.521,0,0-299.234-14.334-142.9,225.234,0,0,23.187,39.476,6.674,132.27Z"/>
  <path id="lamparilla4" class="cls-1" d="M560.864,801.706L702.4,857.315l-5.575,6.994"/>
  <path id="lamparilla3" class="cls-1" d="M562.546,841.933l133.8,29.432"/>
  <path id="lamparilla2" class="cls-1" d="M694.187,871.927l-129.4,12.4"/>
  <path id="lamparilla" class="cls-1" d="M561.085,882.514L681.758,911.2,645.74,921.956,626.5,906.627l-17.936,7.437-19.236-15.329-12.837,7.5"/>
  <path id="cloud" class="cls-2" d="M862.283,408.961s32.6,2.393,34.717-41.188c0,0-2.416-24.712-27.1-26.976,0,0,3.887-36.932-23.709-53.108,0,0-42.775-20.293-56.732,23.6,0,0-55.4-40.345-65.2,28.661,0,0-36.584-3.253-38.1,32.877,0,0-4.084,18.78,29.636,36.13H862.283Z"/>
  <text id="P" class="cls-3" transform="translate(131.676 943.006) scale(0.779)">P</text>
  <path id="borde" class="cls-4" d="M15,986H985L984.014,15.986,15.986,15Z"/>
  <path id="cloud_oscura" data-name="cloud oscura" class="cls-5" d="M553.165,501.97S528.6,503.794,527,470.589c0,0,1.821-18.828,20.422-20.553,0,0-2.93-28.138,17.869-40.463,0,0,32.238-15.461,42.757,17.983,0,0,41.752-30.739,49.14,21.838,0,0,27.572-2.479,28.718,25.048,0,0,3.078,14.31-22.336,27.528H553.165Z"/>
  <path id="thunder" class="cls-6" d="M673,629L611,741l55-15L616,843"/>
  <path id="thunder2" class="cls-6" d="M212,298L157,414l35-14-27,83"/>
  <path id="cloud-2" data-name="cloud" class="cls-2" d="M79,319.859S40.5,322.7,38,271c0,0,2.853-29.314,32-32,0,0-4.591-43.811,28-63,0,0,50.517-24.072,67,28,0,0,65.423-47.859,77,34,0,0,43.2-3.859,45,39,0,0,4.823,22.279-35,42.859H79Z"/>
  <path id="thunder3" class="cls-6" d="M892,438l-17,66,22-5-20,73,47-92-29,1Z"/>
</svg>
